<svg width="188" height="188" viewBox="0 0 188 188" fill="none" xmlns="http://www.w3.org/2000/svg">
<g filter="url(#filter0_d_397_226)">
<ellipse cx="93.6324" cy="90" rx="89.6324" ry="90" fill="white"/>
<path d="M81.234 100.121C81.234 98.5329 80.8194 97.063 80.148 95.7832H64.6354C63.9572 97.063 63.5449 98.5352 63.5449 100.121C63.5449 101.714 63.9595 103.181 64.6377 104.466H80.1435C80.8194 103.181 81.234 101.711 81.234 100.121ZM78.67 102.147H72.0053C71.798 101.489 71.6921 100.812 71.6921 100.121C71.6921 99.4324 71.798 98.7578 72.0031 98.1016H78.6722C78.8795 98.7578 78.9809 99.4347 78.9809 100.121C78.9809 100.812 78.8773 101.489 78.67 102.147Z" fill="#171796"/>
<path d="M150.041 78.4785L78.5527 118.937C85.5666 112.103 89.9669 101.473 91.837 87.7105C91.8595 87.5551 91.8843 87.3836 91.9046 87.2259L150.039 70.3315V66.9397L146.105 67.9899V51.4247C146.105 49.0368 144.578 46.0947 142.712 44.8891L129.844 36.5752C127.977 35.3673 126.449 36.3364 126.449 38.7244V73.2388L121.528 74.5511C122.134 73.6353 122.515 72.5456 122.515 71.4397V31.8595C122.515 31.8595 119.016 29.5782 117.031 28.2799C112.556 25.3447 107.014 41.9099 105.412 47.3837C102.149 58.5446 99.3105 77.2196 99.3105 77.2196C99.0987 78.5851 99.5088 79.6516 100.291 80.2219L92.5918 82.2784C95.3383 62.5972 99.4479 37.1873 106.656 25.4398H63.5944C74.6233 15.1089 83.3067 13.5625 91.0642 13.5625C115.143 13.5625 150.041 48.6774 150.041 48.6774V43.6673C150.041 43.6673 118.593 8.92561 91.0642 8.92561C82.4461 8.92561 71.4014 10.3723 57.0942 25.4398C51.5921 31.2428 45.6237 39.0582 39.4907 49.6001C34.4731 58.2201 29.4081 70.5958 26.808 82.9832C23.4149 99.1635 24.2395 115.365 34.9417 123.266L24.2395 127.724V148.031H159.425V78.4785H150.041ZM34.3897 116.417C32.051 113.436 30.5549 109.381 29.9106 104.466H44.7585C45.4344 103.181 45.849 101.711 45.849 100.121C45.849 98.5329 45.4344 97.063 44.763 95.7832H29.6424C29.7709 93.2005 30.048 90.4879 30.5234 87.6201H87.3015C85.0033 103.777 79.2129 114.539 70.1396 119.582C65.1806 122.243 59.309 123.593 52.6916 123.593C44.2831 123.595 38.1276 121.179 34.3897 116.417ZM36.3071 100.121C36.3071 99.4348 36.413 98.7601 36.618 98.1017H43.2895C43.4945 98.7578 43.5981 99.4348 43.5981 100.121C43.5981 100.812 43.4945 101.489 43.2872 102.147H36.6203C36.413 101.487 36.3071 100.81 36.3071 100.121ZM154.919 143.394H68.0713V132.06H154.919V143.394Z" fill="#171796"/>
</g>
<defs>
<filter id="filter0_d_397_226" x="0" y="0" width="187.265" height="188" filterUnits="userSpaceOnUse" color-interpolation-filters="sRGB">
<feFlood flood-opacity="0" result="BackgroundImageFix"/>
<feColorMatrix in="SourceAlpha" type="matrix" values="0 0 0 0 0 0 0 0 0 0 0 0 0 0 0 0 0 0 127 0" result="hardAlpha"/>
<feOffset dy="4"/>
<feGaussianBlur stdDeviation="2"/>
<feComposite in2="hardAlpha" operator="out"/>
<feColorMatrix type="matrix" values="0 0 0 0 0 0 0 0 0 0 0 0 0 0 0 0 0 0 0.25 0"/>
<feBlend mode="normal" in2="BackgroundImageFix" result="effect1_dropShadow_397_226"/>
<feBlend mode="normal" in="SourceGraphic" in2="effect1_dropShadow_397_226" result="shape"/>
</filter>
</defs>
</svg>
